<svg xmlns="http://www.w3.org/2000/svg" xmlns:xlink="http://www.w3.org/1999/xlink" width="1080" zoomAndPan="magnify" viewBox="0 0 810 809.999993" height="1080" preserveAspectRatio="xMidYMid meet" version="1.0"><defs><g/></defs><g fill="#008080" fill-opacity="1"><g transform="translate(178.62875, 677.624986)"><g><path d="M 196.796875 -539.203125 C 201.597656 -553.597656 211.863281 -560.796875 227.59375 -560.796875 C 243.332031 -560.796875 253.867188 -553.332031 259.203125 -538.40625 L 443.203125 -21.59375 C 443.734375 -20 444 -18.132812 444 -16 C 444 -5.332031 438.664062 0 428 0 L 418.40625 0 C 411.46875 0 406.398438 -3.46875 403.203125 -10.40625 L 228.796875 -507.203125 L 53.59375 -10.40625 C 50.394531 -3.46875 45.332031 0 38.40625 0 L 28.796875 0 C 18.128906 0 12.796875 -5.332031 12.796875 -16 C 12.796875 -18.132812 13.0625 -20 13.59375 -21.59375 Z M 159.203125 -246.40625 L 297.59375 -246.40625 C 301.863281 -246.40625 305.597656 -244.9375 308.796875 -242 C 311.992188 -239.0625 313.59375 -235.195312 313.59375 -230.40625 L 313.59375 -223.203125 C 313.59375 -218.398438 311.992188 -214.53125 308.796875 -211.59375 C 305.597656 -208.664062 301.863281 -207.203125 297.59375 -207.203125 L 159.203125 -207.203125 C 149.066406 -207.203125 144 -212.535156 144 -223.203125 L 144 -230.40625 C 144 -241.070312 149.066406 -246.40625 159.203125 -246.40625 Z M 159.203125 -246.40625 "/></g></g></g></svg>