<svg xmlns="http://www.w3.org/2000/svg" xmlns:xlink="http://www.w3.org/1999/xlink" width="776" zoomAndPan="magnify" viewBox="21 153 776 483" height="483" preserveAspectRatio="xMidYMid meet" version="1.0"><defs><clipPath id="a99d396588"><path d="M 30.117188 160.980469 L 779.730469 160.980469 L 779.730469 620.90625 L 30.117188 620.90625 Z M 30.117188 160.980469 " clip-rule="nonzero"/></clipPath></defs><g clip-path="url(#a99d396588)"><path fill="#008080" d="M 709.792969 286.855469 L 709.792969 224.617188 C 709.792969 223.523438 709.761719 222.429688 709.710938 221.335938 C 709.65625 220.246094 709.574219 219.152344 709.464844 218.066406 C 709.355469 216.976562 709.222656 215.894531 709.058594 214.8125 C 708.898438 213.734375 708.710938 212.652344 708.496094 211.582031 C 708.28125 210.511719 708.042969 209.445312 707.773438 208.382812 C 707.507812 207.320312 707.214844 206.269531 706.898438 205.222656 C 706.582031 204.175781 706.234375 203.136719 705.867188 202.109375 C 705.496094 201.082031 705.101562 200.0625 704.683594 199.050781 C 704.265625 198.042969 703.820312 197.042969 703.355469 196.054688 C 702.886719 195.066406 702.394531 194.089844 701.878906 193.125 C 701.363281 192.164062 700.820312 191.210938 700.257812 190.273438 C 699.699219 189.335938 699.113281 188.410156 698.503906 187.503906 C 697.898438 186.59375 697.265625 185.699219 696.617188 184.824219 C 695.964844 183.945312 695.292969 183.085938 694.601562 182.238281 C 693.902344 181.394531 693.191406 180.566406 692.457031 179.753906 C 691.71875 178.945312 690.96875 178.152344 690.195312 177.382812 C 689.421875 176.605469 688.632812 175.851562 687.820312 175.121094 C 687.011719 174.386719 686.179688 173.671875 685.339844 172.976562 C 684.492188 172.285156 683.628906 171.609375 682.753906 170.957031 C 681.875 170.304688 680.980469 169.675781 680.070312 169.070312 C 679.160156 168.460938 678.238281 167.878906 677.304688 167.316406 C 676.363281 166.753906 675.414062 166.210938 674.449219 165.699219 C 673.484375 165.179688 672.507812 164.6875 671.519531 164.222656 C 670.535156 163.753906 669.53125 163.308594 668.523438 162.890625 C 667.511719 162.472656 666.496094 162.078125 665.464844 161.707031 C 664.433594 161.339844 663.394531 160.996094 662.351562 160.675781 C 661.304688 160.359375 660.25 160.070312 659.191406 159.800781 C 658.132812 159.53125 657.066406 159.292969 655.992188 159.078125 C 654.921875 158.867188 653.84375 158.675781 652.765625 158.515625 C 651.679688 158.355469 650.59375 158.222656 649.507812 158.113281 C 648.421875 158 647.328125 157.921875 646.238281 157.867188 C 645.144531 157.8125 644.054688 157.785156 642.957031 157.78125 L 418.285156 157.78125 L 418.285156 118.527344 C 420.050781 118.25 421.804688 117.917969 423.550781 117.53125 C 425.292969 117.144531 427.023438 116.707031 428.742188 116.210938 C 430.457031 115.71875 432.15625 115.171875 433.839844 114.570312 C 435.523438 113.972656 437.1875 113.320312 438.828125 112.613281 C 440.472656 111.910156 442.089844 111.15625 443.6875 110.351562 C 445.28125 109.546875 446.847656 108.699219 448.390625 107.792969 C 449.933594 106.890625 451.445312 105.945312 452.929688 104.949219 C 454.414062 103.953125 455.863281 102.914062 457.285156 101.824219 C 458.703125 100.742188 460.085938 99.609375 461.433594 98.441406 C 462.78125 97.265625 464.09375 96.054688 465.363281 94.800781 C 466.640625 93.542969 467.871094 92.253906 469.0625 90.925781 C 470.257812 89.589844 471.40625 88.226562 472.515625 86.824219 C 473.621094 85.421875 474.6875 83.988281 475.703125 82.519531 C 476.71875 81.054688 477.691406 79.550781 478.617188 78.023438 C 479.542969 76.496094 480.417969 74.941406 481.246094 73.355469 C 482.074219 71.773438 482.851562 70.167969 483.582031 68.535156 C 484.308594 66.902344 484.988281 65.25 485.613281 63.578125 C 486.234375 61.90625 486.808594 60.214844 487.328125 58.503906 C 487.847656 56.792969 488.3125 55.070312 488.726562 53.332031 C 489.140625 51.59375 489.496094 49.839844 489.804688 48.082031 C 490.105469 46.320312 490.355469 44.554688 490.546875 42.777344 C 490.742188 41 490.878906 39.21875 490.964844 37.4375 C 491.046875 35.652344 491.074219 33.867188 491.046875 32.078125 C 491.019531 30.292969 490.9375 28.511719 490.796875 26.730469 C 490.65625 24.949219 490.460938 23.171875 490.214844 21.402344 C 489.964844 19.632812 489.65625 17.875 489.300781 16.121094 C 488.941406 14.371094 488.53125 12.636719 488.058594 10.910156 C 487.59375 9.1875 487.074219 7.480469 486.503906 5.785156 C 485.929688 4.09375 485.304688 2.421875 484.625 0.765625 C 483.945312 -0.882812 483.21875 -2.515625 482.4375 -4.125 C 481.660156 -5.730469 480.832031 -7.3125 479.957031 -8.871094 C 479.078125 -10.425781 478.152344 -11.953125 477.183594 -13.453125 C 476.210938 -14.949219 475.1875 -16.417969 474.125 -17.851562 C 473.0625 -19.289062 471.953125 -20.691406 470.804688 -22.054688 C 469.652344 -23.421875 468.460938 -24.753906 467.226562 -26.042969 C 465.996094 -27.335938 464.71875 -28.589844 463.410156 -29.804688 C 462.097656 -31.019531 460.75 -32.1875 459.367188 -33.316406 C 457.980469 -34.445312 456.5625 -35.535156 455.113281 -36.574219 C 453.660156 -37.613281 452.175781 -38.609375 450.664062 -39.558594 C 449.148438 -40.507812 447.605469 -41.410156 446.039062 -42.261719 C 444.464844 -43.113281 442.871094 -43.914062 441.25 -44.667969 C 439.632812 -45.425781 437.992188 -46.125 436.324219 -46.777344 C 434.664062 -47.429688 432.980469 -48.027344 431.28125 -48.574219 C 429.578125 -49.121094 427.859375 -49.617188 426.132812 -50.054688 C 424.398438 -50.496094 422.65625 -50.882812 420.898438 -51.214844 C 419.144531 -51.546875 417.382812 -51.820312 415.609375 -52.039062 C 413.835938 -52.265625 412.058594 -52.429688 410.273438 -52.539062 C 408.488281 -52.652344 406.703125 -52.707031 404.921875 -52.707031 C 403.132812 -52.707031 401.347656 -52.652344 399.5625 -52.539062 C 397.78125 -52.429688 396 -52.265625 394.226562 -52.039062 C 392.457031 -51.820312 390.691406 -51.546875 388.9375 -51.214844 C 387.179688 -50.882812 385.4375 -50.496094 383.707031 -50.054688 C 381.976562 -49.617188 380.257812 -49.121094 378.558594 -48.574219 C 376.855469 -48.027344 375.171875 -47.429688 373.511719 -46.777344 C 371.847656 -46.125 370.207031 -45.425781 368.585938 -44.667969 C 366.964844 -43.914062 365.371094 -43.113281 363.800781 -42.261719 C 362.230469 -41.410156 360.6875 -40.507812 359.175781 -39.558594 C 357.660156 -38.609375 356.175781 -37.613281 354.722656 -36.574219 C 353.273438 -35.535156 351.855469 -34.445312 350.46875 -33.316406 C 349.085938 -32.1875 347.738281 -31.019531 346.425781 -29.804688 C 345.117188 -28.589844 343.84375 -27.335938 342.609375 -26.042969 C 341.375 -24.753906 340.183594 -23.421875 339.03125 -22.054688 C 337.882812 -20.691406 336.773438 -19.289062 335.710938 -17.851562 C 334.648438 -16.417969 333.628906 -14.949219 332.65625 -13.453125 C 331.683594 -11.953125 330.757812 -10.425781 329.882812 -8.871094 C 329.003906 -7.3125 328.175781 -5.730469 327.398438 -4.125 C 326.621094 -2.515625 325.890625 -0.882812 325.210938 0.765625 C 324.535156 2.421875 323.90625 4.09375 323.335938 5.785156 C 322.765625 7.480469 322.242188 9.1875 321.777344 10.910156 C 321.308594 12.636719 320.894531 14.371094 320.535156 16.121094 C 320.179688 17.875 319.871094 19.632812 319.625 21.402344 C 319.375 23.171875 319.179688 24.949219 319.042969 26.730469 C 318.902344 28.511719 318.820312 30.292969 318.789062 32.078125 C 318.761719 33.867188 318.789062 35.652344 318.871094 37.4375 C 318.957031 39.21875 319.09375 41 319.289062 42.777344 C 319.480469 44.554688 319.730469 46.320312 320.03125 48.082031 C 320.339844 49.839844 320.695312 51.59375 321.109375 53.332031 C 321.523438 55.070312 321.988281 56.792969 322.507812 58.503906 C 323.027344 60.214844 323.601562 61.90625 324.226562 63.578125 C 324.851562 65.25 325.527344 66.902344 326.253906 68.535156 C 326.984375 70.167969 327.761719 71.773438 328.589844 73.355469 C 329.417969 74.941406 330.296875 76.496094 331.21875 78.023438 C 332.144531 79.550781 333.117188 81.054688 334.132812 82.519531 C 335.152344 83.988281 336.214844 85.421875 337.324219 86.824219 C 338.429688 88.226562 339.582031 89.589844 340.773438 90.925781 C 341.964844 92.253906 343.199219 93.546875 344.472656 94.800781 C 345.742188 96.054688 347.054688 97.265625 348.402344 98.441406 C 349.75 99.609375 351.132812 100.742188 352.550781 101.824219 C 353.972656 102.914062 355.421875 103.953125 356.90625 104.949219 C 358.390625 105.945312 359.902344 106.890625 361.445312 107.792969 C 362.988281 108.699219 364.554688 109.546875 366.148438 110.351562 C 367.746094 111.15625 369.363281 111.910156 371.007812 112.613281 C 372.652344 113.320312 374.3125 113.972656 375.996094 114.570312 C 377.679688 115.171875 379.378906 115.71875 381.097656 116.210938 C 382.8125 116.707031 384.542969 117.144531 386.289062 117.53125 C 388.03125 117.917969 389.789062 118.25 391.554688 118.527344 L 391.554688 157.78125 L 166.878906 157.78125 C 165.78125 157.785156 164.691406 157.8125 163.597656 157.867188 C 162.507812 157.921875 161.417969 158 160.328125 158.113281 C 159.242188 158.222656 158.15625 158.355469 157.074219 158.515625 C 155.992188 158.679688 154.914062 158.867188 153.84375 159.078125 C 152.773438 159.292969 151.703125 159.53125 150.644531 159.800781 C 149.585938 160.070312 148.53125 160.359375 147.484375 160.675781 C 146.441406 160.996094 145.402344 161.339844 144.371094 161.707031 C 143.34375 162.078125 142.324219 162.472656 141.3125 162.890625 C 140.304688 163.308594 139.300781 163.753906 138.316406 164.222656 C 137.328125 164.6875 136.351562 165.179688 135.386719 165.699219 C 134.421875 166.210938 133.472656 166.753906 132.535156 167.316406 C 131.597656 167.878906 130.675781 168.460938 129.765625 169.070312 C 128.855469 169.675781 127.960938 170.304688 127.082031 170.957031 C 126.207031 171.609375 125.34375 172.285156 124.496094 172.976562 C 123.65625 173.671875 122.824219 174.386719 122.015625 175.121094 C 121.207031 175.851562 120.414062 176.605469 119.644531 177.382812 C 118.867188 178.152344 118.117188 178.945312 117.382812 179.753906 C 116.644531 180.566406 115.933594 181.394531 115.238281 182.238281 C 114.542969 183.085938 113.871094 183.945312 113.222656 184.824219 C 112.570312 185.699219 111.9375 186.59375 111.332031 187.503906 C 110.726562 188.410156 110.140625 189.335938 109.578125 190.273438 C 109.015625 191.210938 108.476562 192.164062 107.957031 193.125 C 107.441406 194.089844 106.949219 195.066406 106.480469 196.054688 C 106.015625 197.042969 105.574219 198.042969 105.152344 199.050781 C 104.734375 200.0625 104.339844 201.082031 103.972656 202.109375 C 103.601562 203.136719 103.257812 204.175781 102.9375 205.222656 C 102.621094 206.269531 102.328125 207.320312 102.0625 208.382812 C 101.796875 209.445312 101.558594 210.511719 101.339844 211.582031 C 101.128906 212.65625 100.9375 213.734375 100.777344 214.8125 C 100.613281 215.894531 100.480469 216.976562 100.371094 218.066406 C 100.265625 219.152344 100.183594 220.246094 100.125 221.335938 C 100.074219 222.429688 100.042969 223.523438 100.042969 224.617188 L 100.042969 286.855469 C 97.648438 287.25 95.273438 287.75 92.921875 288.351562 C 90.570312 288.957031 88.25 289.660156 85.957031 290.46875 C 83.667969 291.277344 81.417969 292.183594 79.207031 293.1875 C 76.996094 294.195312 74.835938 295.296875 72.722656 296.492188 C 70.605469 297.6875 68.550781 298.972656 66.550781 300.347656 C 64.546875 301.726562 62.609375 303.1875 60.742188 304.734375 C 58.867188 306.28125 57.066406 307.90625 55.339844 309.613281 C 53.609375 311.316406 51.957031 313.09375 50.382812 314.945312 C 48.8125 316.796875 47.320312 318.710938 45.917969 320.695312 C 44.511719 322.671875 43.199219 324.714844 41.976562 326.808594 C 40.75 328.902344 39.617188 331.050781 38.582031 333.25 C 37.546875 335.441406 36.609375 337.679688 35.765625 339.960938 C 34.929688 342.238281 34.191406 344.546875 33.554688 346.894531 C 32.917969 349.238281 32.382812 351.601562 31.953125 353.996094 C 31.527344 356.382812 31.203125 358.789062 30.984375 361.207031 C 30.765625 363.625 30.65625 366.050781 30.652344 368.476562 L 30.652344 410.398438 C 30.65625 412.828125 30.765625 415.25 30.984375 417.667969 C 31.203125 420.085938 31.527344 422.488281 31.953125 424.882812 C 32.382812 427.273438 32.917969 429.640625 33.554688 431.984375 C 34.191406 434.324219 34.929688 436.636719 35.765625 438.914062 C 36.609375 441.195312 37.546875 443.429688 38.582031 445.628906 C 39.617188 447.824219 40.75 449.96875 41.976562 452.066406 C 43.199219 454.164062 44.511719 456.203125 45.917969 458.183594 C 47.320312 460.164062 48.8125 462.078125 50.382812 463.929688 C 51.957031 465.78125 53.609375 467.554688 55.339844 469.261719 C 57.066406 470.96875 58.867188 472.59375 60.742188 474.140625 C 62.609375 475.683594 64.546875 477.148438 66.550781 478.523438 C 68.550781 479.902344 70.605469 481.1875 72.722656 482.382812 C 74.835938 483.578125 76.996094 484.679688 79.207031 485.683594 C 81.417969 486.691406 83.667969 487.597656 85.957031 488.402344 C 88.25 489.210938 90.570312 489.921875 92.921875 490.523438 C 95.273438 491.128906 97.648438 491.625 100.042969 492.019531 L 100.042969 554.351562 C 100.042969 555.441406 100.074219 556.539062 100.125 557.628906 C 100.183594 558.722656 100.265625 559.8125 100.371094 560.898438 C 100.480469 561.988281 100.613281 563.070312 100.777344 564.152344 C 100.9375 565.238281 101.128906 566.3125 101.339844 567.382812 C 101.558594 568.457031 101.796875 569.519531 102.0625 570.582031 C 102.328125 571.644531 102.621094 572.699219 102.9375 573.742188 C 103.253906 574.789062 103.601562 575.828125 103.972656 576.855469 C 104.339844 577.882812 104.734375 578.90625 105.152344 579.914062 C 105.574219 580.925781 106.015625 581.921875 106.480469 582.914062 C 106.949219 583.902344 107.441406 584.875 107.957031 585.839844 C 108.476562 586.804688 109.015625 587.757812 109.578125 588.691406 C 110.140625 589.628906 110.726562 590.554688 111.332031 591.464844 C 111.9375 592.371094 112.570312 593.265625 113.222656 594.140625 C 113.871094 595.019531 114.542969 595.882812 115.238281 596.726562 C 115.933594 597.574219 116.644531 598.398438 117.382812 599.210938 C 118.117188 600.019531 118.867188 600.8125 119.644531 601.585938 C 120.414062 602.359375 121.207031 603.113281 122.015625 603.847656 C 122.824219 604.582031 123.65625 605.296875 124.496094 605.988281 C 125.34375 606.679688 126.207031 607.355469 127.082031 608.007812 C 127.960938 608.660156 128.855469 609.289062 129.765625 609.898438 C 130.675781 610.503906 131.597656 611.089844 132.535156 611.652344 C 133.472656 612.214844 134.421875 612.753906 135.386719 613.269531 C 136.351562 613.785156 137.328125 614.277344 138.316406 614.742188 C 139.300781 615.210938 140.304688 615.65625 141.3125 616.078125 C 142.324219 616.496094 143.34375 616.890625 144.371094 617.257812 C 145.402344 617.625 146.441406 617.96875 147.484375 618.289062 C 148.53125 618.605469 149.585938 618.902344 150.644531 619.164062 C 151.703125 619.433594 152.773438 619.671875 153.84375 619.886719 C 154.914062 620.101562 155.992188 620.289062 157.074219 620.449219 C 158.15625 620.609375 159.242188 620.75 160.328125 620.855469 C 161.417969 620.964844 162.507812 621.046875 163.597656 621.097656 C 164.691406 621.15625 165.78125 621.183594 166.878906 621.183594 L 642.957031 621.183594 C 644.054688 621.183594 645.144531 621.15625 646.238281 621.097656 C 647.328125 621.046875 648.421875 620.964844 649.507812 620.855469 C 650.59375 620.75 651.679688 620.609375 652.765625 620.449219 C 653.84375 620.289062 654.921875 620.101562 655.992188 619.886719 C 657.066406 619.671875 658.132812 619.433594 659.195312 619.164062 C 660.25 618.902344 661.304688 618.605469 662.351562 618.289062 C 663.394531 617.96875 664.433594 617.625 665.464844 617.257812 C 666.496094 616.890625 667.511719 616.496094 668.523438 616.078125 C 669.53125 615.65625 670.535156 615.210938 671.519531 614.742188 C 672.507812 614.277344 673.484375 613.785156 674.449219 613.269531 C 675.414062 612.753906 676.363281 612.214844 677.304688 611.652344 C 678.238281 611.089844 679.160156 610.503906 680.070312 609.898438 C 680.980469 609.289062 681.875 608.660156 682.753906 608.007812 C 683.632812 607.355469 684.492188 606.683594 685.339844 605.988281 C 686.179688 605.296875 687.011719 604.582031 687.820312 603.847656 C 688.632812 603.113281 689.421875 602.359375 690.195312 601.585938 C 690.96875 600.8125 691.71875 600.019531 692.457031 599.210938 C 693.191406 598.398438 693.902344 597.574219 694.601562 596.726562 C 695.292969 595.882812 695.964844 595.019531 696.617188 594.140625 C 697.265625 593.265625 697.898438 592.371094 698.503906 591.464844 C 699.113281 590.554688 699.699219 589.628906 700.261719 588.691406 C 700.824219 587.757812 701.363281 586.804688 701.878906 585.839844 C 702.394531 584.875 702.886719 583.902344 703.355469 582.914062 C 703.820312 581.921875 704.265625 580.925781 704.683594 579.914062 C 705.101562 578.90625 705.496094 577.882812 705.867188 576.855469 C 706.234375 575.828125 706.582031 574.789062 706.898438 573.742188 C 707.214844 572.699219 707.507812 571.644531 707.773438 570.582031 C 708.042969 569.519531 708.285156 568.457031 708.496094 567.382812 C 708.710938 566.3125 708.898438 565.238281 709.058594 564.152344 C 709.222656 563.070312 709.355469 561.988281 709.464844 560.898438 C 709.574219 559.8125 709.65625 558.722656 709.710938 557.628906 C 709.761719 556.539062 709.792969 555.441406 709.792969 554.351562 L 709.792969 492.019531 C 712.1875 491.625 714.566406 491.128906 716.914062 490.523438 C 719.265625 489.921875 721.585938 489.210938 723.878906 488.402344 C 726.167969 487.597656 728.417969 486.691406 730.628906 485.683594 C 732.839844 484.679688 735.003906 483.578125 737.113281 482.382812 C 739.230469 481.1875 741.285156 479.902344 743.289062 478.523438 C 745.289062 477.148438 747.226562 475.683594 749.09375 474.140625 C 750.96875 472.59375 752.769531 470.96875 754.496094 469.261719 C 756.226562 467.554688 757.878906 465.78125 759.453125 463.929688 C 761.023438 462.078125 762.515625 460.164062 763.917969 458.183594 C 765.324219 456.203125 766.636719 454.164062 767.863281 452.066406 C 769.085938 449.96875 770.21875 447.824219 771.253906 445.628906 C 772.292969 443.429688 773.230469 441.195312 774.070312 438.914062 C 774.910156 436.636719 775.648438 434.324219 776.285156 431.984375 C 776.921875 429.640625 777.453125 427.273438 777.886719 424.882812 C 778.3125 422.488281 778.632812 420.085938 778.855469 417.667969 C 779.070312 415.25 779.183594 412.828125 779.183594 410.398438 L 779.183594 368.476562 C 779.183594 366.050781 779.070312 363.625 778.855469 361.207031 C 778.632812 358.789062 778.3125 356.382812 777.886719 353.996094 C 777.453125 351.601562 776.921875 349.238281 776.285156 346.894531 C 775.648438 344.546875 774.910156 342.238281 774.070312 339.960938 C 773.230469 337.679688 772.292969 335.441406 771.253906 333.25 C 770.21875 331.050781 769.085938 328.902344 767.863281 326.808594 C 766.636719 324.714844 765.324219 322.671875 763.917969 320.695312 C 762.515625 318.710938 761.023438 316.796875 759.453125 314.945312 C 757.878906 313.09375 756.226562 311.316406 754.496094 309.613281 C 752.769531 307.90625 750.96875 306.28125 749.09375 304.734375 C 747.226562 303.1875 745.289062 301.726562 743.289062 300.347656 C 741.285156 298.972656 739.230469 297.6875 737.113281 296.492188 C 735.003906 295.296875 732.839844 294.195312 730.628906 293.1875 C 728.417969 292.183594 726.167969 291.277344 723.878906 290.46875 C 721.585938 289.660156 719.265625 288.957031 716.914062 288.351562 C 714.566406 287.75 712.1875 287.25 709.792969 286.855469 Z M 345.511719 33.527344 C 345.511719 31.582031 345.609375 29.640625 345.796875 27.710938 C 345.988281 25.773438 346.269531 23.847656 346.652344 21.941406 C 347.03125 20.035156 347.5 18.152344 348.066406 16.289062 C 348.628906 14.429688 349.28125 12.601562 350.027344 10.804688 C 350.769531 9.007812 351.597656 7.25 352.515625 5.535156 C 353.429688 3.820312 354.429688 2.152344 355.511719 0.535156 C 356.589844 -1.082031 357.746094 -2.640625 358.976562 -4.148438 C 360.210938 -5.648438 361.515625 -7.089844 362.890625 -8.464844 C 364.265625 -9.839844 365.703125 -11.148438 367.203125 -12.378906 C 368.707031 -13.613281 370.265625 -14.773438 371.882812 -15.855469 C 373.5 -16.9375 375.164062 -17.933594 376.878906 -18.855469 C 378.59375 -19.769531 380.347656 -20.601562 382.144531 -21.347656 C 383.9375 -22.09375 385.769531 -22.75 387.625 -23.3125 C 389.488281 -23.878906 391.375 -24.355469 393.277344 -24.738281 C 395.1875 -25.117188 397.109375 -25.402344 399.042969 -25.597656 C 400.980469 -25.789062 402.914062 -25.882812 404.859375 -25.886719 C 406.804688 -25.886719 408.746094 -25.796875 410.683594 -25.609375 C 412.617188 -25.417969 414.539062 -25.136719 416.445312 -24.757812 C 418.355469 -24.378906 420.238281 -23.910156 422.101562 -23.347656 C 423.960938 -22.785156 425.792969 -22.132812 427.589844 -21.390625 C 429.386719 -20.652344 431.144531 -19.820312 432.859375 -18.90625 C 434.574219 -17.992188 436.242188 -16.996094 437.859375 -15.914062 C 439.480469 -14.839844 441.042969 -13.683594 442.546875 -12.449219 C 444.050781 -11.222656 445.488281 -9.917969 446.867188 -8.542969 C 448.246094 -7.171875 449.550781 -5.734375 450.789062 -4.234375 C 452.023438 -2.730469 453.183594 -1.175781 454.265625 0.441406 C 455.347656 2.058594 456.347656 3.722656 457.269531 5.433594 C 458.1875 7.148438 459.019531 8.902344 459.765625 10.699219 C 460.515625 12.496094 461.171875 14.324219 461.738281 16.183594 C 462.304688 18.042969 462.78125 19.925781 463.164062 21.835938 C 463.546875 23.742188 463.832031 25.660156 464.027344 27.597656 C 464.222656 29.53125 464.320312 31.472656 464.324219 33.417969 C 464.328125 35.359375 464.234375 37.296875 464.050781 39.234375 C 463.859375 41.171875 463.582031 43.089844 463.203125 45.003906 C 462.828125 46.910156 462.359375 48.792969 461.800781 50.652344 C 461.238281 52.515625 460.589844 54.347656 459.847656 56.144531 C 459.105469 57.945312 458.277344 59.703125 457.367188 61.417969 C 456.453125 63.132812 455.457031 64.804688 454.378906 66.421875 C 453.300781 68.039062 452.152344 69.605469 450.917969 71.109375 C 449.6875 72.613281 448.386719 74.058594 447.011719 75.433594 C 445.640625 76.8125 444.203125 78.121094 442.707031 79.359375 C 441.207031 80.59375 439.648438 81.753906 438.03125 82.835938 C 436.417969 83.921875 434.757812 84.921875 433.042969 85.84375 C 431.328125 86.769531 429.574219 87.601562 427.777344 88.347656 C 425.988281 89.097656 424.15625 89.753906 422.300781 90.324219 C 420.441406 90.894531 418.554688 91.367188 416.652344 91.757812 C 414.742188 92.140625 412.820312 92.425781 410.886719 92.625 C 408.953125 92.816406 407.015625 92.917969 405.070312 92.925781 L 404.921875 92.890625 L 404.765625 92.925781 C 402.828125 92.917969 400.890625 92.8125 398.957031 92.617188 C 397.027344 92.421875 395.105469 92.132812 393.203125 91.746094 C 391.304688 91.359375 389.421875 90.882812 387.566406 90.316406 C 385.707031 89.75 383.886719 89.089844 382.089844 88.34375 C 380.300781 87.59375 378.546875 86.761719 376.839844 85.84375 C 375.128906 84.921875 373.464844 83.925781 371.851562 82.839844 C 370.242188 81.761719 368.6875 80.601562 367.183594 79.371094 C 365.6875 78.136719 364.253906 76.828125 362.882812 75.453125 C 361.511719 74.078125 360.207031 72.640625 358.976562 71.140625 C 357.75 69.636719 356.59375 68.082031 355.515625 66.464844 C 354.4375 64.851562 353.441406 63.1875 352.527344 61.472656 C 351.613281 59.757812 350.78125 58.007812 350.042969 56.210938 C 349.296875 54.421875 348.644531 52.59375 348.078125 50.734375 C 347.515625 48.875 347.042969 46.996094 346.664062 45.089844 C 346.28125 43.1875 345.996094 41.269531 345.804688 39.339844 C 345.613281 37.40625 345.515625 35.46875 345.511719 33.527344 Z M 57.382812 410.398438 L 57.382812 368.476562 C 57.386719 366.925781 57.460938 365.378906 57.589844 363.832031 C 57.722656 362.292969 57.917969 360.753906 58.179688 359.226562 C 58.4375 357.699219 58.761719 356.183594 59.148438 354.679688 C 59.535156 353.179688 59.980469 351.695312 60.488281 350.230469 C 61 348.769531 61.566406 347.328125 62.195312 345.910156 C 62.824219 344.492188 63.507812 343.105469 64.253906 341.742188 C 64.996094 340.382812 65.796875 339.054688 66.648438 337.761719 C 67.503906 336.46875 68.40625 335.210938 69.367188 333.992188 C 70.328125 332.773438 71.332031 331.597656 72.386719 330.460938 C 73.445312 329.324219 74.542969 328.238281 75.691406 327.195312 C 76.835938 326.148438 78.023438 325.15625 79.253906 324.210938 C 80.480469 323.265625 81.746094 322.371094 83.050781 321.53125 C 84.351562 320.691406 85.6875 319.902344 87.054688 319.175781 C 88.421875 318.445312 89.816406 317.773438 91.242188 317.160156 C 92.664062 316.546875 94.113281 315.992188 95.582031 315.5 C 97.050781 315.003906 98.539062 314.574219 100.042969 314.203125 L 100.042969 464.671875 C 98.539062 464.300781 97.050781 463.867188 95.582031 463.375 C 94.113281 462.882812 92.664062 462.328125 91.242188 461.714844 C 89.816406 461.101562 88.421875 460.429688 87.054688 459.699219 C 85.6875 458.96875 84.351562 458.1875 83.050781 457.34375 C 81.746094 456.503906 80.480469 455.613281 79.253906 454.667969 C 78.023438 453.71875 76.835938 452.726562 75.691406 451.683594 C 74.542969 450.640625 73.441406 449.546875 72.386719 448.414062 C 71.332031 447.277344 70.324219 446.101562 69.367188 444.882812 C 68.40625 443.664062 67.503906 442.40625 66.648438 441.113281 C 65.796875 439.820312 64.996094 438.492188 64.253906 437.132812 C 63.507812 435.769531 62.824219 434.382812 62.195312 432.964844 C 61.566406 431.546875 61 430.109375 60.488281 428.644531 C 59.980469 427.179688 59.535156 425.699219 59.148438 424.191406 C 58.761719 422.691406 58.4375 421.179688 58.179688 419.652344 C 57.917969 418.121094 57.722656 416.585938 57.589844 415.039062 C 57.460938 413.496094 57.386719 411.945312 57.382812 410.398438 Z M 642.957031 594.449219 L 166.878906 594.449219 C 165.5625 594.449219 164.253906 594.382812 162.949219 594.253906 C 161.640625 594.125 160.34375 593.929688 159.058594 593.671875 C 157.769531 593.414062 156.5 593.09375 155.238281 592.714844 C 153.984375 592.332031 152.75 591.886719 151.535156 591.386719 C 150.324219 590.882812 149.140625 590.324219 147.984375 589.703125 C 146.824219 589.082031 145.699219 588.410156 144.609375 587.679688 C 143.515625 586.949219 142.464844 586.167969 141.449219 585.335938 C 140.433594 584.5 139.460938 583.621094 138.535156 582.695312 C 137.605469 581.765625 136.722656 580.792969 135.894531 579.777344 C 135.058594 578.761719 134.277344 577.710938 133.546875 576.617188 C 132.820312 575.527344 132.144531 574.402344 131.523438 573.246094 C 130.90625 572.085938 130.34375 570.902344 129.839844 569.6875 C 129.335938 568.476562 128.894531 567.242188 128.515625 565.984375 C 128.128906 564.730469 127.8125 563.460938 127.554688 562.171875 C 127.300781 560.882812 127.105469 559.585938 126.976562 558.28125 C 126.84375 556.972656 126.777344 555.664062 126.777344 554.351562 L 126.777344 480.101562 C 126.777344 480.011719 126.828125 479.9375 126.828125 479.84375 C 126.828125 479.75 126.777344 479.675781 126.777344 479.582031 L 126.777344 299.289062 C 126.777344 299.203125 126.828125 299.128906 126.828125 299.035156 C 126.828125 298.941406 126.777344 298.867188 126.777344 298.773438 L 126.777344 224.617188 C 126.777344 223.304688 126.84375 221.992188 126.976562 220.6875 C 127.105469 219.382812 127.300781 218.085938 127.554688 216.796875 C 127.8125 215.511719 128.128906 214.234375 128.515625 212.980469 C 128.898438 211.726562 129.335938 210.488281 129.839844 209.277344 C 130.34375 208.0625 130.90625 206.878906 131.523438 205.722656 C 132.144531 204.566406 132.820312 203.441406 133.546875 202.347656 C 134.277344 201.257812 135.058594 200.203125 135.894531 199.1875 C 136.722656 198.171875 137.605469 197.203125 138.535156 196.273438 C 139.460938 195.34375 140.433594 194.464844 141.449219 193.632812 C 142.464844 192.800781 143.515625 192.019531 144.609375 191.289062 C 145.699219 190.558594 146.824219 189.882812 147.984375 189.265625 C 149.140625 188.648438 150.324219 188.082031 151.535156 187.582031 C 152.75 187.078125 153.984375 186.636719 155.238281 186.25 C 156.5 185.871094 157.769531 185.550781 159.058594 185.292969 C 160.34375 185.035156 161.640625 184.84375 162.949219 184.710938 C 164.253906 184.582031 165.5625 184.519531 166.878906 184.515625 L 642.957031 184.515625 C 644.273438 184.519531 645.582031 184.582031 646.890625 184.710938 C 648.195312 184.84375 649.492188 185.035156 650.777344 185.292969 C 652.066406 185.550781 653.335938 185.871094 654.597656 186.25 C 655.851562 186.636719 657.085938 187.078125 658.300781 187.582031 C 659.511719 188.082031 660.695312 188.648438 661.855469 189.265625 C 663.011719 189.882812 664.136719 190.558594 665.230469 191.289062 C 666.320312 192.019531 667.371094 192.800781 668.386719 193.632812 C 669.402344 194.464844 670.375 195.34375 671.300781 196.273438 C 672.230469 197.203125 673.113281 198.171875 673.941406 199.1875 C 674.777344 200.203125 675.558594 201.257812 676.289062 202.347656 C 677.019531 203.441406 677.695312 204.566406 678.3125 205.722656 C 678.929688 206.878906 679.492188 208.0625 679.996094 209.277344 C 680.5 210.488281 680.941406 211.726562 681.324219 212.980469 C 681.707031 214.234375 682.023438 215.511719 682.285156 216.796875 C 682.539062 218.085938 682.730469 219.382812 682.863281 220.6875 C 682.992188 221.992188 683.058594 223.304688 683.058594 224.617188 L 683.058594 298.773438 C 683.058594 298.867188 683.007812 298.941406 683.007812 299.035156 C 683.007812 299.125 683.058594 299.203125 683.058594 299.289062 L 683.058594 479.582031 C 683.058594 479.675781 683.007812 479.75 683.007812 479.84375 C 683.007812 479.933594 683.058594 480.011719 683.058594 480.101562 L 683.058594 554.351562 C 683.058594 555.664062 682.992188 556.972656 682.863281 558.28125 C 682.730469 559.585938 682.539062 560.882812 682.285156 562.171875 C 682.023438 563.460938 681.707031 564.730469 681.324219 565.984375 C 680.941406 567.242188 680.5 568.476562 679.996094 569.6875 C 679.492188 570.902344 678.929688 572.085938 678.3125 573.246094 C 677.695312 574.402344 677.019531 575.527344 676.289062 576.617188 C 675.558594 577.710938 674.777344 578.761719 673.941406 579.777344 C 673.113281 580.792969 672.230469 581.765625 671.300781 582.695312 C 670.375 583.621094 669.402344 584.5 668.386719 585.335938 C 667.371094 586.167969 666.320312 586.949219 665.230469 587.679688 C 664.136719 588.410156 663.011719 589.082031 661.855469 589.703125 C 660.695312 590.324219 659.511719 590.882812 658.300781 591.386719 C 657.085938 591.886719 655.851562 592.332031 654.597656 592.714844 C 653.335938 593.09375 652.066406 593.414062 650.777344 593.671875 C 649.492188 593.929688 648.195312 594.125 646.890625 594.253906 C 645.582031 594.382812 644.273438 594.449219 642.957031 594.449219 Z M 752.453125 410.398438 C 752.449219 411.945312 752.378906 413.496094 752.246094 415.039062 C 752.113281 416.585938 751.917969 418.121094 751.660156 419.652344 C 751.398438 421.179688 751.074219 422.691406 750.691406 424.191406 C 750.300781 425.695312 749.855469 427.179688 749.347656 428.644531 C 748.839844 430.109375 748.269531 431.546875 747.640625 432.964844 C 747.011719 434.382812 746.328125 435.769531 745.582031 437.132812 C 744.839844 438.492188 744.039062 439.816406 743.1875 441.113281 C 742.332031 442.40625 741.429688 443.660156 740.472656 444.882812 C 739.511719 446.101562 738.503906 447.277344 737.449219 448.410156 C 736.394531 449.546875 735.292969 450.640625 734.144531 451.683594 C 733 452.726562 731.8125 453.71875 730.582031 454.667969 C 729.359375 455.613281 728.089844 456.503906 726.789062 457.34375 C 725.484375 458.183594 724.148438 458.96875 722.78125 459.699219 C 721.414062 460.429688 720.019531 461.101562 718.59375 461.714844 C 717.171875 462.328125 715.726562 462.882812 714.253906 463.375 C 712.789062 463.867188 711.296875 464.300781 709.792969 464.671875 L 709.792969 314.203125 C 711.296875 314.574219 712.789062 315.003906 714.253906 315.5 C 715.726562 315.992188 717.171875 316.546875 718.59375 317.160156 C 720.019531 317.773438 721.414062 318.445312 722.78125 319.171875 C 724.148438 319.902344 725.484375 320.691406 726.789062 321.53125 C 728.089844 322.371094 729.359375 323.265625 730.582031 324.210938 C 731.8125 325.152344 733 326.148438 734.148438 327.195312 C 735.292969 328.238281 736.394531 329.324219 737.449219 330.460938 C 738.503906 331.597656 739.511719 332.773438 740.472656 333.992188 C 741.429688 335.210938 742.332031 336.46875 743.1875 337.761719 C 744.039062 339.054688 744.839844 340.382812 745.582031 341.742188 C 746.328125 343.105469 747.011719 344.492188 747.640625 345.910156 C 748.269531 347.328125 748.839844 348.769531 749.347656 350.230469 C 749.855469 351.695312 750.300781 353.179688 750.691406 354.679688 C 751.074219 356.183594 751.398438 357.699219 751.660156 359.226562 C 751.917969 360.753906 752.113281 362.292969 752.246094 363.832031 C 752.378906 365.378906 752.449219 366.925781 752.453125 368.476562 Z M 752.453125 410.398438 " fill-opacity="1" fill-rule="nonzero"/></g><path fill="#008080" d="M 363.003906 329.335938 C 363.003906 327.929688 362.96875 326.515625 362.902344 325.109375 C 362.832031 323.703125 362.726562 322.296875 362.589844 320.894531 C 362.449219 319.488281 362.277344 318.09375 362.070312 316.695312 C 361.867188 315.304688 361.625 313.914062 361.347656 312.53125 C 361.070312 311.148438 360.765625 309.773438 360.425781 308.40625 C 360.082031 307.039062 359.703125 305.679688 359.296875 304.332031 C 358.886719 302.984375 358.441406 301.644531 357.96875 300.316406 C 357.492188 298.988281 356.984375 297.675781 356.449219 296.375 C 355.910156 295.070312 355.335938 293.78125 354.734375 292.507812 C 354.132812 291.234375 353.5 289.972656 352.832031 288.730469 C 352.167969 287.488281 351.476562 286.257812 350.75 285.050781 C 350.023438 283.839844 349.269531 282.652344 348.488281 281.480469 C 347.707031 280.304688 346.894531 279.15625 346.050781 278.023438 C 345.214844 276.890625 344.34375 275.78125 343.449219 274.691406 C 342.558594 273.601562 341.636719 272.535156 340.691406 271.488281 C 339.746094 270.445312 338.773438 269.425781 337.773438 268.425781 C 336.777344 267.429688 335.757812 266.460938 334.710938 265.511719 C 333.667969 264.566406 332.601562 263.644531 331.511719 262.75 C 330.417969 261.855469 329.308594 260.988281 328.175781 260.148438 C 327.042969 259.308594 325.894531 258.496094 324.71875 257.714844 C 323.550781 256.929688 322.359375 256.175781 321.152344 255.453125 C 319.941406 254.726562 318.714844 254.035156 317.46875 253.367188 C 316.226562 252.703125 314.96875 252.070312 313.691406 251.46875 C 312.417969 250.863281 311.132812 250.292969 309.828125 249.753906 C 308.523438 249.214844 307.210938 248.707031 305.882812 248.234375 C 304.558594 247.757812 303.21875 247.3125 301.867188 246.90625 C 300.519531 246.5 299.164062 246.121094 297.796875 245.78125 C 296.429688 245.4375 295.054688 245.128906 293.667969 244.851562 C 292.285156 244.574219 290.898438 244.335938 289.503906 244.128906 C 288.109375 243.925781 286.710938 243.75 285.308594 243.609375 C 283.902344 243.472656 282.5 243.367188 281.089844 243.300781 C 279.683594 243.230469 278.273438 243.199219 276.863281 243.199219 C 275.453125 243.199219 274.046875 243.230469 272.636719 243.300781 C 271.230469 243.367188 269.824219 243.472656 268.421875 243.609375 C 267.015625 243.75 265.621094 243.925781 264.226562 244.128906 C 262.828125 244.335938 261.445312 244.574219 260.0625 244.851562 C 258.675781 245.128906 257.300781 245.4375 255.933594 245.78125 C 254.566406 246.121094 253.210938 246.5 251.859375 246.90625 C 250.507812 247.3125 249.171875 247.757812 247.847656 248.234375 C 246.519531 248.707031 245.203125 249.214844 243.902344 249.753906 C 242.597656 250.292969 241.3125 250.863281 240.035156 251.46875 C 238.757812 252.070312 237.5 252.703125 236.261719 253.367188 C 235.015625 254.035156 233.789062 254.726562 232.578125 255.453125 C 231.371094 256.175781 230.179688 256.929688 229.007812 257.714844 C 227.835938 258.496094 226.6875 259.308594 225.554688 260.148438 C 224.421875 260.988281 223.304688 261.855469 222.21875 262.75 C 221.128906 263.644531 220.0625 264.566406 219.019531 265.511719 C 217.972656 266.460938 216.949219 267.429688 215.957031 268.425781 C 214.957031 269.425781 213.984375 270.445312 213.039062 271.488281 C 212.09375 272.535156 211.171875 273.601562 210.277344 274.691406 C 209.386719 275.78125 208.515625 276.890625 207.679688 278.023438 C 206.835938 279.15625 206.023438 280.304688 205.242188 281.480469 C 204.460938 282.652344 203.703125 283.839844 202.980469 285.050781 C 202.253906 286.257812 201.5625 287.488281 200.898438 288.730469 C 200.230469 289.972656 199.597656 291.234375 198.996094 292.507812 C 198.394531 293.78125 197.820312 295.070312 197.28125 296.375 C 196.746094 297.675781 196.234375 298.988281 195.761719 300.316406 C 195.285156 301.644531 194.84375 302.984375 194.433594 304.332031 C 194.023438 305.679688 193.648438 307.039062 193.304688 308.40625 C 192.964844 309.773438 192.652344 311.148438 192.382812 312.53125 C 192.105469 313.914062 191.863281 315.304688 191.660156 316.695312 C 191.449219 318.09375 191.28125 319.488281 191.140625 320.894531 C 191.003906 322.296875 190.898438 323.703125 190.828125 325.109375 C 190.761719 326.515625 190.722656 327.929688 190.722656 329.335938 C 190.722656 330.746094 190.761719 332.15625 190.828125 333.566406 C 190.898438 334.972656 191.003906 336.378906 191.140625 337.777344 C 191.28125 339.183594 191.449219 340.578125 191.660156 341.976562 C 191.863281 343.371094 192.105469 344.757812 192.382812 346.140625 C 192.652344 347.523438 192.964844 348.898438 193.304688 350.265625 C 193.648438 351.632812 194.023438 352.992188 194.433594 354.339844 C 194.84375 355.691406 195.285156 357.027344 195.761719 358.355469 C 196.234375 359.683594 196.746094 361 197.28125 362.300781 C 197.820312 363.601562 198.394531 364.890625 198.996094 366.164062 C 199.597656 367.441406 200.230469 368.699219 200.898438 369.941406 C 201.5625 371.183594 202.253906 372.414062 202.980469 373.621094 C 203.703125 374.832031 204.460938 376.019531 205.242188 377.191406 C 206.023438 378.367188 206.835938 379.519531 207.679688 380.648438 C 208.515625 381.78125 209.386719 382.894531 210.277344 383.984375 C 211.171875 385.070312 212.09375 386.140625 213.039062 387.183594 C 213.984375 388.226562 214.957031 389.25 215.957031 390.246094 C 216.949219 391.242188 217.972656 392.214844 219.019531 393.160156 C 220.0625 394.109375 221.128906 395.03125 222.21875 395.925781 C 223.304688 396.820312 224.421875 397.683594 225.554688 398.523438 C 226.6875 399.363281 227.835938 400.175781 229.007812 400.957031 C 230.179688 401.742188 231.371094 402.496094 232.578125 403.222656 C 233.789062 403.945312 235.015625 404.640625 236.261719 405.304688 C 237.5 405.96875 238.757812 406.601562 240.035156 407.203125 C 241.3125 407.808594 242.597656 408.378906 243.902344 408.917969 C 245.203125 409.457031 246.519531 409.964844 247.847656 410.441406 C 249.171875 410.914062 250.507812 411.359375 251.859375 411.769531 C 253.210938 412.175781 254.566406 412.550781 255.933594 412.894531 C 257.300781 413.234375 258.675781 413.546875 260.0625 413.820312 C 261.445312 414.097656 262.828125 414.335938 264.226562 414.542969 C 265.621094 414.75 267.019531 414.925781 268.421875 415.0625 C 269.824219 415.199219 271.230469 415.304688 272.636719 415.371094 C 274.046875 415.441406 275.453125 415.476562 276.863281 415.476562 C 278.273438 415.476562 279.683594 415.4375 281.089844 415.367188 C 282.496094 415.296875 283.902344 415.191406 285.304688 415.050781 C 286.707031 414.914062 288.105469 414.738281 289.5 414.527344 C 290.894531 414.324219 292.28125 414.082031 293.664062 413.804688 C 295.046875 413.527344 296.417969 413.21875 297.785156 412.875 C 299.152344 412.53125 300.511719 412.15625 301.859375 411.746094 C 303.207031 411.335938 304.542969 410.894531 305.871094 410.417969 C 307.199219 409.9375 308.511719 409.433594 309.8125 408.890625 C 311.113281 408.351562 312.402344 407.78125 313.675781 407.179688 C 314.953125 406.574219 316.207031 405.941406 317.453125 405.273438 C 318.691406 404.613281 319.917969 403.914062 321.128906 403.191406 C 322.335938 402.464844 323.527344 401.714844 324.695312 400.925781 C 325.871094 400.144531 327.023438 399.332031 328.15625 398.496094 C 329.285156 397.652344 330.398438 396.789062 331.484375 395.894531 C 332.574219 395 333.640625 394.082031 334.683594 393.132812 C 335.726562 392.183594 336.75 391.214844 337.746094 390.21875 C 338.742188 389.222656 339.714844 388.203125 340.660156 387.160156 C 341.605469 386.113281 342.527344 385.046875 343.421875 383.953125 C 344.316406 382.867188 345.183594 381.757812 346.019531 380.625 C 346.863281 379.492188 347.671875 378.339844 348.457031 377.171875 C 349.238281 375.996094 349.992188 374.808594 350.71875 373.597656 C 351.445312 372.390625 352.136719 371.164062 352.804688 369.925781 C 353.46875 368.679688 354.101562 367.421875 354.707031 366.148438 C 355.308594 364.871094 355.882812 363.585938 356.417969 362.285156 C 356.960938 360.984375 357.46875 359.667969 357.941406 358.34375 C 358.417969 357.015625 358.863281 355.679688 359.273438 354.332031 C 359.683594 352.980469 360.058594 351.625 360.402344 350.257812 C 360.746094 348.890625 361.058594 347.515625 361.332031 346.132812 C 361.609375 344.753906 361.851562 343.367188 362.058594 341.96875 C 362.269531 340.574219 362.4375 339.179688 362.582031 337.777344 C 362.71875 336.375 362.828125 334.96875 362.898438 333.5625 C 362.964844 332.152344 363 330.746094 363.003906 329.335938 Z M 217.457031 329.335938 C 217.457031 327.390625 217.554688 325.449219 217.746094 323.511719 C 217.933594 321.578125 218.222656 319.652344 218.601562 317.746094 C 218.980469 315.839844 219.449219 313.953125 220.015625 312.089844 C 220.582031 310.230469 221.234375 308.398438 221.980469 306.605469 C 222.726562 304.804688 223.554688 303.050781 224.472656 301.332031 C 225.390625 299.613281 226.390625 297.949219 227.472656 296.332031 C 228.550781 294.714844 229.710938 293.15625 230.945312 291.648438 C 232.175781 290.144531 233.484375 288.707031 234.859375 287.328125 C 236.234375 285.953125 237.675781 284.648438 239.175781 283.414062 C 240.683594 282.179688 242.242188 281.023438 243.859375 279.941406 C 245.480469 278.859375 247.144531 277.863281 248.863281 276.945312 C 250.578125 276.03125 252.335938 275.199219 254.128906 274.453125 C 255.929688 273.707031 257.757812 273.054688 259.621094 272.488281 C 261.480469 271.925781 263.367188 271.449219 265.277344 271.070312 C 267.183594 270.691406 269.105469 270.40625 271.039062 270.21875 C 272.976562 270.023438 274.917969 269.929688 276.863281 269.929688 C 278.8125 269.929688 280.753906 270.023438 282.6875 270.21875 C 284.625 270.40625 286.546875 270.691406 288.453125 271.070312 C 290.363281 271.449219 292.25 271.925781 294.109375 272.488281 C 295.96875 273.054688 297.800781 273.707031 299.597656 274.453125 C 301.394531 275.199219 303.152344 276.03125 304.867188 276.945312 C 306.585938 277.863281 308.25 278.859375 309.871094 279.941406 C 311.488281 281.023438 313.046875 282.179688 314.554688 283.414062 C 316.054688 284.648438 317.496094 285.953125 318.871094 287.328125 C 320.246094 288.707031 321.554688 290.144531 322.785156 291.648438 C 324.019531 293.15625 325.179688 294.714844 326.257812 296.332031 C 327.339844 297.949219 328.339844 299.613281 329.257812 301.332031 C 330.171875 303.050781 331.003906 304.804688 331.75 306.605469 C 332.496094 308.398438 333.144531 310.230469 333.710938 312.089844 C 334.277344 313.953125 334.75 315.839844 335.128906 317.746094 C 335.507812 319.652344 335.796875 321.578125 335.984375 323.511719 C 336.175781 325.449219 336.273438 327.390625 336.273438 329.335938 C 336.273438 331.28125 336.175781 333.222656 335.984375 335.160156 C 335.796875 337.097656 335.507812 339.019531 335.128906 340.925781 C 334.75 342.832031 334.277344 344.71875 333.710938 346.582031 C 333.144531 348.445312 332.496094 350.273438 331.75 352.070312 C 331.003906 353.867188 330.171875 355.621094 329.257812 357.339844 C 328.339844 359.058594 327.339844 360.722656 326.257812 362.339844 C 325.179688 363.957031 324.019531 365.515625 322.785156 367.023438 C 321.554688 368.527344 320.246094 369.964844 318.871094 371.34375 C 317.496094 372.71875 316.054688 374.023438 314.554688 375.257812 C 313.046875 376.492188 311.488281 377.652344 309.871094 378.730469 C 308.25 379.8125 306.585938 380.808594 304.867188 381.726562 C 303.152344 382.648438 301.394531 383.476562 299.597656 384.21875 C 297.800781 384.964844 295.96875 385.621094 294.109375 386.1875 C 292.25 386.75 290.363281 387.222656 288.453125 387.601562 C 286.546875 387.980469 284.625 388.265625 282.6875 388.453125 C 280.753906 388.648438 278.8125 388.742188 276.863281 388.742188 C 274.917969 388.742188 272.980469 388.640625 271.042969 388.449219 C 269.109375 388.257812 267.1875 387.96875 265.28125 387.585938 C 263.375 387.207031 261.488281 386.734375 259.628906 386.167969 C 257.765625 385.601562 255.9375 384.945312 254.140625 384.199219 C 252.347656 383.457031 250.589844 382.625 248.875 381.703125 C 247.160156 380.789062 245.496094 379.789062 243.878906 378.710938 C 242.261719 377.625 240.699219 376.46875 239.199219 375.234375 C 237.695312 374 236.257812 372.695312 234.882812 371.320312 C 233.507812 369.945312 232.199219 368.503906 230.964844 367.003906 C 229.734375 365.5 228.574219 363.9375 227.492188 362.320312 C 226.414062 360.703125 225.414062 359.039062 224.496094 357.324219 C 223.578125 355.613281 222.746094 353.851562 222.003906 352.058594 C 221.253906 350.261719 220.597656 348.433594 220.03125 346.574219 C 219.46875 344.710938 218.992188 342.828125 218.613281 340.921875 C 218.234375 339.015625 217.945312 337.09375 217.753906 335.15625 C 217.558594 333.222656 217.460938 331.28125 217.457031 329.335938 Z M 217.457031 329.335938 " fill-opacity="1" fill-rule="nonzero"/><path fill="#008080" d="M 532.972656 243.191406 C 531.5625 243.191406 530.152344 243.222656 528.746094 243.292969 C 527.335938 243.367188 525.933594 243.464844 524.527344 243.605469 C 523.128906 243.742188 521.726562 243.917969 520.332031 244.121094 C 518.9375 244.332031 517.550781 244.570312 516.167969 244.84375 C 514.78125 245.121094 513.40625 245.429688 512.039062 245.773438 C 510.671875 246.113281 509.3125 246.492188 507.964844 246.902344 C 506.617188 247.308594 505.277344 247.75 503.953125 248.226562 C 502.621094 248.699219 501.308594 249.207031 500.007812 249.746094 C 498.703125 250.285156 497.414062 250.855469 496.140625 251.460938 C 494.867188 252.0625 493.605469 252.699219 492.363281 253.359375 C 491.121094 254.023438 489.898438 254.71875 488.6875 255.441406 C 487.476562 256.167969 486.285156 256.921875 485.113281 257.707031 C 483.941406 258.492188 482.789062 259.300781 481.65625 260.140625 C 480.523438 260.980469 479.414062 261.847656 478.320312 262.742188 C 477.234375 263.636719 476.164062 264.554688 475.121094 265.503906 C 474.078125 266.453125 473.058594 267.425781 472.058594 268.417969 C 471.0625 269.417969 470.089844 270.4375 469.140625 271.480469 C 468.195312 272.523438 467.277344 273.59375 466.382812 274.679688 C 465.488281 275.773438 464.621094 276.882812 463.78125 278.015625 C 462.941406 279.148438 462.128906 280.300781 461.34375 281.472656 C 460.5625 282.644531 459.808594 283.835938 459.082031 285.046875 C 458.355469 286.253906 457.664062 287.480469 456.996094 288.722656 C 456.335938 289.964844 455.699219 291.226562 455.097656 292.5 C 454.492188 293.773438 453.925781 295.0625 453.382812 296.367188 C 452.84375 297.667969 452.335938 298.980469 451.863281 300.308594 C 451.386719 301.636719 450.949219 302.976562 450.539062 304.324219 C 450.128906 305.671875 449.75 307.03125 449.410156 308.398438 C 449.066406 309.765625 448.757812 311.140625 448.480469 312.523438 C 448.207031 313.90625 447.96875 315.296875 447.757812 316.6875 C 447.554688 318.085938 447.378906 319.484375 447.242188 320.886719 C 447.101562 322.289062 447 323.695312 446.929688 325.105469 C 446.859375 326.511719 446.828125 327.921875 446.828125 329.328125 C 446.828125 330.742188 446.859375 332.148438 446.929688 333.558594 C 447 334.964844 447.101562 336.371094 447.242188 337.773438 C 447.378906 339.175781 447.550781 340.574219 447.757812 341.96875 C 447.964844 343.363281 448.207031 344.753906 448.480469 346.132812 C 448.757812 347.519531 449.066406 348.894531 449.40625 350.261719 C 449.746094 351.628906 450.125 352.984375 450.535156 354.335938 C 450.945312 355.6875 451.386719 357.023438 451.859375 358.351562 C 452.335938 359.679688 452.84375 360.996094 453.382812 362.296875 C 453.921875 363.597656 454.492188 364.886719 455.09375 366.160156 C 455.699219 367.4375 456.332031 368.695312 456.996094 369.941406 C 457.660156 371.179688 458.355469 372.40625 459.078125 373.617188 C 459.804688 374.828125 460.558594 376.015625 461.339844 377.1875 C 462.125 378.363281 462.9375 379.515625 463.777344 380.644531 C 464.617188 381.777344 465.484375 382.890625 466.378906 383.980469 C 467.273438 385.070312 468.191406 386.136719 469.136719 387.179688 C 470.085938 388.222656 471.058594 389.246094 472.054688 390.242188 C 473.050781 391.242188 474.070312 392.210938 475.117188 393.160156 C 476.160156 394.105469 477.226562 395.027344 478.316406 395.921875 C 479.40625 396.816406 480.519531 397.683594 481.652344 398.519531 C 482.785156 399.363281 483.9375 400.171875 485.109375 400.957031 C 486.277344 401.738281 487.472656 402.492188 488.679688 403.21875 C 489.890625 403.945312 491.113281 404.636719 492.359375 405.300781 C 493.601562 405.96875 494.863281 406.601562 496.136719 407.203125 C 497.410156 407.808594 498.699219 408.378906 500 408.917969 C 501.304688 409.457031 502.617188 409.964844 503.945312 410.4375 C 505.269531 410.914062 506.613281 411.355469 507.960938 411.765625 C 509.308594 412.175781 510.664062 412.550781 512.03125 412.894531 C 513.402344 413.234375 514.777344 413.546875 516.160156 413.820312 C 517.542969 414.097656 518.933594 414.335938 520.324219 414.542969 C 521.71875 414.75 523.121094 414.925781 524.519531 415.0625 C 525.925781 415.199219 527.328125 415.304688 528.738281 415.371094 C 530.144531 415.441406 531.554688 415.476562 532.964844 415.476562 C 534.375 415.476562 535.78125 415.441406 537.191406 415.371094 C 538.597656 415.304688 540.007812 415.199219 541.40625 415.0625 C 542.8125 414.925781 544.210938 414.753906 545.605469 414.542969 C 547 414.339844 548.390625 414.097656 549.769531 413.820312 C 551.152344 413.546875 552.527344 413.234375 553.894531 412.894531 C 555.261719 412.550781 556.621094 412.179688 557.972656 411.769531 C 559.320312 411.359375 560.660156 410.914062 561.988281 410.441406 C 563.3125 409.964844 564.628906 409.457031 565.933594 408.917969 C 567.230469 408.382812 568.519531 407.808594 569.796875 407.203125 C 571.070312 406.605469 572.328125 405.972656 573.574219 405.304688 C 574.816406 404.640625 576.042969 403.945312 577.253906 403.222656 C 578.460938 402.496094 579.652344 401.742188 580.824219 400.960938 C 581.996094 400.179688 583.148438 399.367188 584.28125 398.523438 C 585.414062 397.6875 586.527344 396.820312 587.613281 395.925781 C 588.707031 395.03125 589.769531 394.109375 590.816406 393.164062 C 591.859375 392.21875 592.882812 391.246094 593.878906 390.246094 C 594.875 389.253906 595.847656 388.230469 596.792969 387.183594 C 597.738281 386.140625 598.660156 385.070312 599.554688 383.984375 C 600.453125 382.894531 601.316406 381.78125 602.15625 380.648438 C 602.996094 379.519531 603.808594 378.367188 604.589844 377.191406 C 605.375 376.023438 606.128906 374.832031 606.855469 373.625 C 607.578125 372.414062 608.273438 371.1875 608.9375 369.941406 C 609.601562 368.699219 610.234375 367.441406 610.839844 366.164062 C 611.441406 364.890625 612.011719 363.601562 612.550781 362.300781 C 613.09375 361 613.597656 359.683594 614.074219 358.355469 C 614.546875 357.03125 614.992188 355.691406 615.402344 354.339844 C 615.8125 352.992188 616.1875 351.636719 616.53125 350.265625 C 616.875 348.898438 617.179688 347.523438 617.453125 346.140625 C 617.730469 344.757812 617.972656 343.371094 618.175781 341.976562 C 618.386719 340.582031 618.558594 339.183594 618.695312 337.78125 C 618.832031 336.378906 618.9375 334.972656 619.007812 333.566406 C 619.074219 332.15625 619.113281 330.746094 619.113281 329.335938 C 619.109375 327.929688 619.074219 326.519531 619.003906 325.113281 C 618.933594 323.703125 618.828125 322.300781 618.6875 320.894531 C 618.550781 319.492188 618.375 318.097656 618.164062 316.699219 C 617.957031 315.304688 617.714844 313.921875 617.441406 312.539062 C 617.164062 311.15625 616.855469 309.78125 616.511719 308.414062 C 616.167969 307.046875 615.792969 305.691406 615.382812 304.34375 C 614.972656 302.992188 614.53125 301.65625 614.054688 300.328125 C 613.578125 299 613.070312 297.6875 612.53125 296.386719 C 611.988281 295.085938 611.417969 293.796875 610.816406 292.523438 C 610.210938 291.246094 609.578125 289.988281 608.910156 288.75 C 608.25 287.503906 607.550781 286.277344 606.828125 285.070312 C 606.101562 283.859375 605.351562 282.671875 604.566406 281.5 C 603.78125 280.328125 602.96875 279.175781 602.132812 278.046875 C 601.292969 276.914062 600.425781 275.800781 599.53125 274.714844 C 598.636719 273.621094 597.71875 272.558594 596.769531 271.515625 C 595.824219 270.46875 594.851562 269.445312 593.855469 268.453125 C 592.859375 267.453125 591.839844 266.480469 590.796875 265.535156 C 589.75 264.589844 588.683594 263.667969 587.59375 262.773438 C 586.503906 261.878906 585.394531 261.011719 584.261719 260.175781 C 583.132812 259.335938 581.976562 258.523438 580.808594 257.738281 C 579.632812 256.957031 578.445312 256.203125 577.238281 255.476562 C 576.027344 254.75 574.800781 254.058594 573.5625 253.390625 C 572.316406 252.726562 571.058594 252.09375 569.785156 251.492188 C 568.511719 250.886719 567.226562 250.3125 565.921875 249.773438 C 564.621094 249.234375 563.304688 248.726562 561.980469 248.25 C 560.652344 247.777344 559.316406 247.332031 557.96875 246.921875 C 556.617188 246.511719 555.261719 246.136719 553.894531 245.789062 C 552.527344 245.449219 551.152344 245.136719 549.769531 244.863281 C 548.390625 244.585938 547 244.34375 545.605469 244.136719 C 544.214844 243.929688 542.816406 243.753906 541.410156 243.613281 C 540.011719 243.472656 538.605469 243.367188 537.199219 243.296875 C 535.789062 243.226562 534.382812 243.195312 532.972656 243.191406 Z M 532.972656 388.742188 C 531.023438 388.742188 529.085938 388.648438 527.152344 388.457031 C 525.214844 388.265625 523.292969 387.980469 521.378906 387.601562 C 519.472656 387.222656 517.585938 386.75 515.726562 386.1875 C 513.867188 385.621094 512.03125 384.964844 510.238281 384.222656 C 508.4375 383.476562 506.683594 382.648438 504.964844 381.730469 C 503.25 380.808594 501.582031 379.8125 499.964844 378.730469 C 498.347656 377.652344 496.785156 376.492188 495.285156 375.257812 C 493.777344 374.023438 492.335938 372.71875 490.960938 371.34375 C 489.585938 369.96875 488.28125 368.527344 487.046875 367.023438 C 485.8125 365.519531 484.65625 363.960938 483.574219 362.339844 C 482.492188 360.722656 481.492188 359.058594 480.574219 357.339844 C 479.660156 355.621094 478.828125 353.867188 478.082031 352.070312 C 477.339844 350.273438 476.683594 348.445312 476.117188 346.582031 C 475.554688 344.71875 475.082031 342.832031 474.699219 340.925781 C 474.320312 339.015625 474.039062 337.09375 473.847656 335.160156 C 473.652344 333.222656 473.5625 331.28125 473.5625 329.332031 C 473.5625 327.386719 473.652344 325.445312 473.84375 323.511719 C 474.039062 321.578125 474.320312 319.652344 474.699219 317.742188 C 475.082031 315.835938 475.554688 313.949219 476.117188 312.085938 C 476.683594 310.226562 477.339844 308.394531 478.082031 306.601562 C 478.824219 304.800781 479.65625 303.046875 480.574219 301.328125 C 481.492188 299.613281 482.492188 297.945312 483.570312 296.328125 C 484.652344 294.707031 485.808594 293.148438 487.042969 291.644531 C 488.28125 290.140625 489.582031 288.699219 490.957031 287.324219 C 492.335938 285.949219 493.773438 284.644531 495.28125 283.410156 C 496.785156 282.175781 498.347656 281.019531 499.960938 279.9375 C 501.578125 278.851562 503.25 277.855469 504.960938 276.9375 C 506.679688 276.023438 508.4375 275.191406 510.234375 274.445312 C 512.03125 273.703125 513.863281 273.046875 515.726562 272.484375 C 517.585938 271.917969 519.472656 271.445312 521.378906 271.0625 C 523.289062 270.6875 525.210938 270.402344 527.148438 270.210938 C 529.085938 270.019531 531.023438 269.921875 532.96875 269.921875 C 534.914062 269.921875 536.855469 270.019531 538.792969 270.210938 C 540.730469 270.402344 542.652344 270.6875 544.558594 271.066406 C 546.46875 271.449219 548.355469 271.917969 550.214844 272.484375 C 552.078125 273.050781 553.90625 273.703125 555.707031 274.445312 C 557.5 275.191406 559.261719 276.023438 560.976562 276.9375 C 562.691406 277.859375 564.359375 278.855469 565.976562 279.9375 C 567.59375 281.019531 569.15625 282.175781 570.660156 283.410156 C 572.164062 284.644531 573.601562 285.949219 574.976562 287.324219 C 576.355469 288.703125 577.660156 290.140625 578.894531 291.644531 C 580.128906 293.152344 581.285156 294.710938 582.367188 296.328125 C 583.449219 297.945312 584.449219 299.613281 585.363281 301.328125 C 586.28125 303.046875 587.109375 304.804688 587.855469 306.601562 C 588.601562 308.398438 589.257812 310.230469 589.820312 312.089844 C 590.386719 313.953125 590.859375 315.839844 591.238281 317.746094 C 591.613281 319.652344 591.902344 321.578125 592.09375 323.511719 C 592.28125 325.449219 592.378906 327.390625 592.378906 329.335938 C 592.375 331.28125 592.277344 333.222656 592.085938 335.15625 C 591.894531 337.09375 591.609375 339.015625 591.222656 340.921875 C 590.84375 342.828125 590.371094 344.710938 589.804688 346.574219 C 589.238281 348.433594 588.582031 350.261719 587.835938 352.058594 C 587.09375 353.855469 586.261719 355.613281 585.339844 357.324219 C 584.425781 359.042969 583.425781 360.707031 582.347656 362.324219 C 581.261719 363.941406 580.105469 365.503906 578.871094 367.003906 C 577.636719 368.507812 576.332031 369.945312 574.957031 371.320312 C 573.585938 372.695312 572.140625 374.003906 570.640625 375.238281 C 569.136719 376.46875 567.574219 377.628906 565.957031 378.710938 C 564.339844 379.789062 562.675781 380.789062 560.960938 381.707031 C 559.25 382.625 557.492188 383.457031 555.695312 384.199219 C 553.898438 384.945312 552.070312 385.601562 550.207031 386.167969 C 548.347656 386.734375 546.464844 387.207031 544.554688 387.589844 C 542.648438 387.96875 540.730469 388.257812 538.792969 388.449219 C 536.859375 388.640625 534.917969 388.742188 532.972656 388.742188 Z M 532.972656 388.742188 " fill-opacity="1" fill-rule="nonzero"/><path fill="#008080" d="M 511.09375 468.742188 C 509.304688 470.382812 507.476562 471.980469 505.613281 473.539062 C 503.746094 475.101562 501.847656 476.613281 499.914062 478.082031 C 497.980469 479.550781 496.015625 480.976562 494.011719 482.355469 C 492.011719 483.730469 489.980469 485.066406 487.917969 486.347656 C 485.855469 487.632812 483.765625 488.871094 481.644531 490.054688 C 479.523438 491.242188 477.375 492.378906 475.203125 493.464844 C 473.03125 494.554688 470.832031 495.589844 468.613281 496.578125 C 466.394531 497.5625 464.148438 498.496094 461.890625 499.375 C 459.625 500.257812 457.339844 501.085938 455.039062 501.859375 C 452.734375 502.636719 450.414062 503.359375 448.078125 504.023438 C 445.742188 504.695312 443.390625 505.304688 441.03125 505.863281 C 438.664062 506.421875 436.289062 506.925781 433.898438 507.378906 C 431.511719 507.824219 429.117188 508.214844 426.710938 508.554688 C 424.304688 508.890625 421.894531 509.171875 419.472656 509.394531 C 417.054688 509.625 414.628906 509.792969 412.203125 509.902344 C 409.777344 510.019531 407.347656 510.074219 404.921875 510.074219 C 402.488281 510.074219 400.0625 510.019531 397.632812 509.902344 C 395.207031 509.792969 392.78125 509.625 390.363281 509.394531 C 387.945312 509.171875 385.53125 508.890625 383.125 508.554688 C 380.71875 508.214844 378.324219 507.824219 375.9375 507.378906 C 373.546875 506.925781 371.171875 506.421875 368.804688 505.863281 C 366.445312 505.304688 364.09375 504.695312 361.757812 504.023438 C 359.421875 503.359375 357.101562 502.636719 354.796875 501.859375 C 352.496094 501.085938 350.210938 500.257812 347.953125 499.375 C 345.6875 498.496094 343.445312 497.5625 341.222656 496.578125 C 339.003906 495.589844 336.804688 494.554688 334.632812 493.464844 C 332.460938 492.378906 330.316406 491.242188 328.195312 490.054688 C 326.070312 488.871094 323.980469 487.632812 321.921875 486.347656 C 319.859375 485.066406 317.828125 483.730469 315.828125 482.355469 C 313.824219 480.976562 311.855469 479.550781 309.921875 478.082031 C 307.988281 476.613281 306.089844 475.101562 304.222656 473.539062 C 302.359375 471.980469 300.53125 470.382812 298.742188 468.742188 C 298.097656 468.144531 297.402344 467.617188 296.652344 467.15625 C 295.90625 466.699219 295.121094 466.320312 294.296875 466.015625 C 293.476562 465.707031 292.628906 465.488281 291.761719 465.351562 C 290.898438 465.214844 290.023438 465.160156 289.144531 465.195312 C 288.269531 465.226562 287.40625 465.347656 286.554688 465.550781 C 285.699219 465.757812 284.871094 466.042969 284.074219 466.410156 C 283.277344 466.777344 282.527344 467.21875 281.8125 467.730469 C 281.101562 468.25 280.449219 468.828125 279.855469 469.472656 C 279.257812 470.117188 278.730469 470.8125 278.269531 471.558594 C 277.8125 472.304688 277.429688 473.09375 277.125 473.914062 C 276.820312 474.738281 276.597656 475.582031 276.460938 476.449219 C 276.324219 477.316406 276.269531 478.1875 276.304688 479.0625 C 276.335938 479.941406 276.453125 480.808594 276.65625 481.660156 C 276.863281 482.515625 277.144531 483.335938 277.515625 484.132812 C 277.878906 484.933594 278.320312 485.6875 278.832031 486.398438 C 279.347656 487.105469 279.929688 487.761719 280.574219 488.359375 C 282.667969 490.28125 284.808594 492.15625 286.992188 493.980469 C 289.175781 495.804688 291.398438 497.578125 293.664062 499.300781 C 295.933594 501.023438 298.234375 502.6875 300.578125 504.300781 C 302.921875 505.917969 305.304688 507.472656 307.71875 508.980469 C 310.132812 510.480469 312.582031 511.929688 315.0625 513.320312 C 317.546875 514.707031 320.058594 516.042969 322.605469 517.3125 C 325.148438 518.585938 327.722656 519.800781 330.324219 520.957031 C 332.921875 522.109375 335.550781 523.203125 338.203125 524.234375 C 340.855469 525.265625 343.527344 526.234375 346.222656 527.144531 C 348.917969 528.054688 351.636719 528.898438 354.371094 529.679688 C 357.109375 530.460938 359.863281 531.179688 362.628906 531.835938 C 365.398438 532.488281 368.179688 533.078125 370.976562 533.605469 C 373.773438 534.125 376.582031 534.585938 379.398438 534.984375 C 382.21875 535.378906 385.042969 535.707031 387.871094 535.96875 C 390.707031 536.234375 393.546875 536.433594 396.390625 536.5625 C 399.226562 536.695312 402.074219 536.757812 404.921875 536.757812 C 407.761719 536.757812 410.609375 536.695312 413.453125 536.5625 C 416.292969 536.433594 419.128906 536.234375 421.964844 535.96875 C 424.796875 535.707031 427.621094 535.378906 430.4375 534.984375 C 433.253906 534.585938 436.066406 534.125 438.859375 533.605469 C 441.65625 533.078125 444.4375 532.488281 447.207031 531.835938 C 449.980469 531.179688 452.726562 530.460938 455.464844 529.675781 C 458.199219 528.898438 460.917969 528.054688 463.613281 527.144531 C 466.3125 526.234375 468.984375 525.265625 471.632812 524.234375 C 474.289062 523.203125 476.914062 522.109375 479.515625 520.957031 C 482.113281 519.800781 484.6875 518.585938 487.234375 517.3125 C 489.777344 516.042969 492.289062 514.707031 494.773438 513.320312 C 497.253906 511.929688 499.707031 510.480469 502.121094 508.980469 C 504.535156 507.472656 506.914062 505.917969 509.257812 504.300781 C 511.601562 502.6875 513.90625 501.023438 516.171875 499.300781 C 518.4375 497.578125 520.660156 495.804688 522.84375 493.980469 C 525.027344 492.15625 527.167969 490.28125 529.265625 488.359375 C 529.90625 487.761719 530.484375 487.105469 531 486.398438 C 531.511719 485.6875 531.953125 484.933594 532.320312 484.132812 C 532.6875 483.335938 532.96875 482.515625 533.175781 481.660156 C 533.375 480.808594 533.496094 479.941406 533.527344 479.0625 C 533.5625 478.1875 533.507812 477.316406 533.367188 476.453125 C 533.230469 475.585938 533.011719 474.738281 532.707031 473.917969 C 532.398438 473.097656 532.019531 472.308594 531.558594 471.566406 C 531.097656 470.816406 530.570312 470.121094 529.976562 469.476562 C 529.382812 468.835938 528.726562 468.253906 528.019531 467.738281 C 527.308594 467.226562 526.554688 466.78125 525.757812 466.417969 C 524.960938 466.046875 524.136719 465.765625 523.285156 465.558594 C 522.429688 465.355469 521.5625 465.234375 520.6875 465.203125 C 519.8125 465.167969 518.941406 465.21875 518.070312 465.355469 C 517.207031 465.492188 516.363281 465.710938 515.539062 466.019531 C 514.714844 466.320312 513.933594 466.703125 513.183594 467.160156 C 512.433594 467.621094 511.738281 468.144531 511.09375 468.742188 Z M 511.09375 468.742188 " fill-opacity="1" fill-rule="nonzero"/></svg>